HIERARCHY
ROOT Hips
{
	OFFSET 0.000000 0.000000 0.000000
	CHANNELS 6 Xposition Yposition Zposition Yrotation Xrotation Zrotation
	JOINT Chest
	{
		OFFSET 0.000000 -0.009281 11.569106
		CHANNELS 3 Yrotation Xrotation Zrotation
		JOINT Chest2
		{
			OFFSET -0.000000 0.016865 9.269641
			CHANNELS 3 Yrotation Xrotation Zrotation
			JOINT Chest3
			{
				OFFSET -0.000000 0.000001 8.374491
				CHANNELS 3 Yrotation Xrotation Zrotation
				JOINT Chest4
				{
					OFFSET -0.000000 0.000001 8.374493
					CHANNELS 3 Yrotation Xrotation Zrotation
					JOINT Neck
					{
						OFFSET -0.000000 0.000002 12.152554
						CHANNELS 3 Yrotation Xrotation Zrotation
						JOINT Head
						{
							OFFSET -0.000000 0.040101 7.802319
							CHANNELS 3 Yrotation Xrotation Zrotation
							End Site
							{
								OFFSET -0.000000 0.020947 14.853096
							}
						}
					}
					JOINT RightCollar
					{
						OFFSET 2.894404 0.000001 6.791374
						CHANNELS 3 Yrotation Xrotation Zrotation
						JOINT RightShoulder
						{
							OFFSET 13.574684 0.000001 0.000000
							CHANNELS 3 Yrotation Xrotation Zrotation
							JOINT RightElbow
							{
								OFFSET 23.923903 0.000002 0.000000
								CHANNELS 3 Yrotation Xrotation Zrotation
								JOINT RightWrist
								{
									OFFSET 19.846718 0.012767 0.000000
									CHANNELS 3 Yrotation Xrotation Zrotation
									End Site
									{
										OFFSET 14.973145 0.000001 0.000000
									}
								}
							}
						}
					}
					JOINT LeftCollar
					{
						OFFSET -2.894404 0.000001 6.791374
						CHANNELS 3 Yrotation Xrotation Zrotation
						JOINT LeftShoulder
						{
							OFFSET -13.574684 -0.000001 0.000000
							CHANNELS 3 Yrotation Xrotation Zrotation
							JOINT LeftElbow
							{
								OFFSET -23.923903 -0.000002 0.000000
								CHANNELS 3 Yrotation Xrotation Zrotation
								JOINT LeftWrist
								{
									OFFSET -19.846718 0.012763 0.000000
									CHANNELS 3 Yrotation Xrotation Zrotation
									End Site
									{
										OFFSET -14.973145 -0.000001 0.000000
									}
								}
							}
						}
					}
				}
			}
		}
	}
	JOINT RightHip
	{
		OFFSET 9.469263 0.004643 0.045487
		CHANNELS 3 Yrotation Xrotation Zrotation
		JOINT RightKnee
		{
			OFFSET 0.000000 0.002661 -40.478676
			CHANNELS 3 Yrotation Xrotation Zrotation
			JOINT RightAnkle
			{
				OFFSET 0.000000 0.049106 -35.224068
				CHANNELS 3 Yrotation Xrotation Zrotation
				JOINT RightToe
				{
					OFFSET -0.000001 12.539529 -6.151390
					CHANNELS 3 Yrotation Xrotation Zrotation
					End Site
					{
						OFFSET -0.000001 5.044994 -1.291870
					}
				}
			}
		}
	}
	JOINT LeftHip
	{
		OFFSET -9.469263 0.004641 0.045487
		CHANNELS 3 Yrotation Xrotation Zrotation
		JOINT LeftKnee
		{
			OFFSET 0.000000 0.002661 -40.478676
			CHANNELS 3 Yrotation Xrotation Zrotation
			JOINT LeftAnkle
			{
				OFFSET 0.000000 0.049106 -35.224068
				CHANNELS 3 Yrotation Xrotation Zrotation
				JOINT LeftToe
				{
					OFFSET -0.000001 12.539529 -6.151390
					CHANNELS 3 Yrotation Xrotation Zrotation
					End Site
					{
						OFFSET -0.000001 5.044994 -1.291870
					}
				}
			}
		}
	}
}
MOTION
Frames: 11
Frame Time: 0.016667
-129.343201 94.811501 83.276070 10.092112 -8.057669 168.522405 1.263711 -0.784575 1.997903 0.781017 -0.428045 0.859553 0.781018 -0.428046 0.859553 0.586365 -0.319938 0.645209 0.951926 -23.189085 1.449943 2.096731 -6.915926 2.861831 11.558186 0.126098 -1.510575 59.986901 0.308886 -21.959891 -7.872364 -30.853815 -15.499120 -0.958085 -1.043000 4.015717 -8.407969 -1.694907 -1.140079 -83.344072 3.066204 -13.548376 -11.334836 12.787652 -26.311980 3.592200 1.140836 -16.422693 6.584330 9.174284 10.809041 0.230525 -7.690618 -1.400335 11.424044 -4.977110 1.462295 -3.688079 0.864416 -0.045558 -0.993213 -20.781021 -9.460750 1.160367 -21.540975 7.611513 8.861283 -3.571185 -6.206561 1.401679 34.347433 0.846363 
-131.064392 93.350182 83.845955 11.845071 -8.695430 169.143146 1.988467 -1.177977 2.090795 1.022558 -0.511070 0.921468 1.022556 -0.511068 0.921467 0.767684 -0.381761 0.691953 1.414571 -23.260663 1.278040 2.882361 -7.058448 2.672519 11.400702 0.200419 -1.862970 58.625344 -0.790241 -21.510663 -8.144050 -32.719243 -15.487497 -1.679556 -2.156975 3.841553 -7.873825 -2.241501 -1.146929 -84.445986 4.165391 -13.420568 -11.835536 12.077449 -26.081943 4.251095 3.200191 -18.475390 8.525749 7.437915 9.975071 0.923835 -8.333440 -1.314705 9.941399 -5.717974 1.125651 -2.823820 2.578940 0.144658 1.411887 -19.651004 -9.919240 1.125686 -25.774067 9.121165 9.047856 -9.799283 -8.062569 1.901496 43.265734 1.897638 
-131.980896 91.801414 83.348343 10.974729 -9.883517 170.064265 0.239900 -1.883135 2.453345 1.179003 -0.560968 0.961647 1.179002 -0.560967 0.961647 0.885131 -0.418874 0.722314 1.947535 -23.219124 1.056712 3.784403 -6.991802 2.415449 11.198773 0.101903 -2.431778 57.416933 -1.668855 -20.346123 -8.352353 -34.762005 -15.320432 -2.149033 -3.162860 3.715707 -7.328911 -3.048013 -1.593789 -85.240938 4.985783 -13.468179 -12.316629 12.208506 -25.787210 5.018720 5.397713 -20.536603 8.008436 4.983397 7.769981 1.390255 -7.788900 -1.695605 7.775394 -7.077558 2.227683 -1.895669 4.104573 0.244487 1.012608 -17.764531 -10.280178 1.299843 -30.898055 10.489427 7.099171 -15.668481 -12.506483 8.522849 51.135635 8.046260 
-133.121857 90.144012 83.114632 10.203799 -11.029710 170.752284 -1.284131 -2.827711 3.254209 1.282632 -0.545633 0.986287 1.282633 -0.545632 0.986287 0.962852 -0.407158 0.740859 2.503700 -23.107549 0.792931 4.718877 -6.794214 2.091005 11.055903 -0.421149 -2.979633 56.535665 -2.727135 -18.635495 -8.455942 -36.257906 -15.094955 -2.341420 -3.820952 3.746918 -6.884871 -3.636779 -2.030315 -85.615834 5.082904 -13.163469 -12.942233 13.177083 -25.712165 5.896369 7.008907 -22.177061 7.106260 2.438767 4.678032 1.797013 -7.394205 -1.063288 6.218934 -5.826656 3.687239 -1.186703 3.348541 0.106437 0.644885 -15.314683 -9.937179 1.681051 -36.427550 10.769524 7.336638 -22.054466 -14.405579 12.335510 59.688067 12.132282 
-133.799210 88.518578 82.886055 10.851427 -11.556908 171.721433 -1.271763 -3.517187 3.604873 1.394132 -0.477771 0.997211 1.394132 -0.477768 0.997210 1.046376 -0.356055 0.748998 3.026842 -23.009248 0.520612 5.591315 -6.619265 1.742970 11.109446 -1.010730 -3.090079 55.944457 -4.127077 -17.014606 -8.598250 -36.878790 -14.880387 -2.460769 -4.039943 4.034217 -6.841260 -3.551217 -2.283067 -85.379373 4.576266 -12.096331 -13.674121 14.753784 -25.765977 6.867610 7.857859 -23.320824 7.943939 0.520830 1.944436 2.325701 -7.459342 -0.266466 4.435168 -4.410898 3.844039 -0.425151 2.930811 0.369957 1.719126 -12.269713 -8.909812 2.959454 -41.123650 9.104589 9.493247 -27.300744 -12.832640 6.887470 66.559763 8.530232 
-134.480652 87.008034 82.570900 12.480179 -11.255453 173.429404 -0.120330 -3.540379 3.045597 1.540942 -0.435171 1.002644 1.540941 -0.435171 1.002643 1.156418 -0.323855 0.753082 3.504457 -22.861041 0.250939 6.383674 -6.349543 1.390830 11.222265 -0.984182 -2.695983 55.582047 -5.776026 -15.891641 -8.893408 -36.983709 -14.642416 -2.745716 -3.954471 4.504277 -7.058470 -3.139097 -2.223787 -84.889737 3.737932 -10.992781 -14.068377 16.418537 -25.446934 7.691672 8.491709 -24.111782 9.445162 -0.225404 0.540764 3.004671 -7.885131 0.332880 3.942400 -3.181104 3.289876 -0.369637 2.995712 -0.199780 4.184633 -8.754393 -8.116940 5.011516 -44.541153 6.559946 12.728881 -28.672789 -10.166319 -8.955190 69.170746 -3.745398 
-135.035751 85.800697 82.219505 14.428588 -10.102865 175.207562 1.478856 -2.733578 2.479277 1.669463 -0.490928 1.035630 1.669462 -0.490928 1.035630 1.252926 -0.365372 0.778065 3.990169 -22.562869 -0.052223 7.185314 -5.799471 0.989516 11.466882 -1.012946 -2.263475 55.175446 -7.088448 -14.230155 -9.243982 -37.060675 -14.314409 -3.420352 -3.830484 5.007472 -7.026564 -3.096667 -2.139284 -84.745811 2.982489 -10.850763 -13.660056 17.760937 -24.289720 8.284278 9.602146 -24.854853 11.570712 0.236814 0.356536 3.739735 -8.412835 -0.108613 3.291701 -2.177995 2.529685 -0.308350 3.223530 -0.518242 6.682185 -4.514996 -7.126134 7.457359 -46.901335 4.294942 16.367281 -27.825118 -8.284734 -24.028025 67.525286 -15.042317 
-135.496246 84.622696 81.877937 15.720456 -9.213329 176.785267 2.497751 -2.160487 2.404399 1.737874 -0.643584 1.084293 1.737874 -0.643584 1.084293 1.304539 -0.479612 0.815049 4.492308 -22.095768 -0.389084 8.011369 -4.933998 0.543957 11.454905 -1.504550 -2.312908 54.913802 -8.180774 -11.369803 -9.546182 -37.209662 -13.865255 -4.435400 -3.993805 5.503031 -6.923462 -2.965054 -2.422945 -84.758515 2.526098 -11.031761 -12.452348 18.862648 -22.308093 8.861407 11.386778 -25.817830 13.047264 0.466606 1.199872 4.420172 -8.674649 -2.173878 2.507738 -0.693488 2.198367 -0.008488 2.824117 -0.305437 7.926718 -0.210301 -5.524345 9.982000 -48.534843 1.964896 19.296674 -26.999922 -7.376262 -31.641480 64.861443 -20.105205 
-135.856537 83.315666 81.564720 16.483126 -9.010606 178.619719 3.081006 -2.221268 2.233488 1.742763 -0.806345 1.115152 1.742763 -0.806346 1.115151 1.308526 -0.601588 0.838658 4.985644 -21.605814 -0.714962 8.824869 -4.025778 0.121231 11.319398 -2.167906 -2.609256 54.769197 -9.277053 -7.881553 -9.826470 -37.390672 -13.383027 -5.559739 -4.340058 6.021609 -6.732087 -2.679931 -2.811178 -84.850006 1.995794 -11.027182 -10.930020 20.088491 -19.980168 9.871161 13.247817 -26.873383 14.058205 -0.142804 1.330782 4.927790 -8.458512 -3.924459 1.728327 0.529125 1.931742 0.258011 2.523965 -0.099613 8.352879 3.665774 -4.779973 11.280215 -49.572885 0.613763 21.152379 -26.046756 -7.689774 -32.037709 62.189132 -19.601268 
-136.266205 81.911293 81.290955 17.237079 -9.064925 180.351036 3.748748 -2.449778 2.145748 1.733269 -0.916987 1.134912 1.733270 -0.916987 1.134913 1.301633 -0.684531 0.853775 5.415896 -21.226761 -1.019267 9.527159 -3.321279 -0.283544 11.330603 -2.515365 -2.732766 54.515360 -10.434570 -4.618492 -10.063252 -37.535892 -12.959699 -6.691210 -4.630916 6.545912 -6.519963 -2.553710 -3.102077 -84.978905 1.266798 -10.811984 -9.536252 21.640524 -17.770634 11.532075 14.415615 -27.650262 15.106726 -1.110073 0.268533 5.205035 -8.158574 -3.952529 1.002901 1.714345 1.296817 0.457737 2.244801 0.073978 8.728308 7.397637 -5.292084 10.509411 -50.350635 1.033614 22.106121 -24.976433 -7.989920 -29.517431 59.099318 -17.103161 
-136.663193 80.464508 81.050217 17.925707 -9.295395 181.625768 4.420125 -2.746842 2.345912 1.741407 -0.966941 1.152739 1.741408 -0.966940 1.152740 1.307854 -0.721930 0.867299 5.726922 -21.020167 -1.262419 10.026111 -2.934958 -0.620999 11.461843 -2.548361 -2.597484 54.069676 -11.532154 -1.658294 -10.183497 -37.572577 -12.570888 -7.795017 -4.805740 7.005794 -6.419208 -2.537575 -3.122926 -85.109942 0.673127 -10.306834 -8.293025 23.149967 -15.664088 13.570339 14.745677 -28.048491 16.150974 -2.221363 -1.315955 5.332400 -8.060820 -3.098293 0.340140 2.757353 0.841030 0.560915 2.128756 0.128572 9.026850 10.918680 -6.476370 8.064065 -50.902791 2.646670 22.527687 -23.714664 -7.700185 -26.230689 55.244496 -14.092261 
